<?xml version="1.0" encoding="UTF-8" standalone="no"?>
<!DOCTYPE svg PUBLIC "-//W3C//DTD SVG 20010904//EN"
              "http://www.w3.org/TR/2001/REC-SVG-20010904/DTD/svg10.dtd">

<svg xmlns="http://www.w3.org/2000/svg"
     width="2.50333in" height="1.23333in"
     viewBox="0 0 751 370">
  <path id="Auswahl"
        fill="#fff"
        d="M 41.00,275.00
           C 58.81,292.81 77.45,308.69 104.00,309.00
             115.45,309.13 124.72,308.30 135.00,302.69
             141.87,298.94 149.65,292.62 153.87,286.00
             161.17,274.56 162.10,255.68 154.93,244.00
             142.79,224.21 116.69,216.70 96.00,209.31
             71.09,200.41 41.49,185.52 25.48,164.00
             10.23,143.51 6.71,121.90 7.00,97.00
             7.47,57.08 38.37,21.47 75.00,8.69
             96.94,1.04 117.24,0.96 140.00,1.00
             161.64,1.03 188.29,8.04 207.00,18.87
             210.98,21.18 217.43,26.08 221.00,29.08
             222.36,30.24 225.17,32.44 225.67,34.17
             226.69,37.68 218.86,45.34 216.58,48.00
             216.58,48.00 194.28,74.00 194.28,74.00
             190.04,78.90 187.33,83.10 182.00,87.00
             166.74,71.74 152.12,57.27 129.00,57.00
             118.81,56.89 108.71,58.41 100.00,64.10
             81.45,76.21 73.16,101.44 87.53,120.00
             97.53,132.92 114.45,138.38 129.00,144.20
             156.16,155.06 192.69,167.01 211.54,190.00
             227.75,209.79 231.29,236.28 231.00,261.00
             230.89,269.84 228.22,281.48 225.71,290.00
             222.76,299.99 219.69,307.12 214.19,316.00
             196.73,344.16 172.07,359.68 140.00,366.20
             133.90,367.44 126.17,368.92 120.00,369.00
             120.00,369.00 106.00,369.66 106.00,369.66
             106.00,369.66 100.00,369.09 100.00,369.09
             91.79,368.54 84.14,368.23 76.00,366.60
             54.52,362.31 35.62,353.90 18.00,340.85
             14.71,338.41 3.31,329.42 2.30,326.00
             1.19,322.23 8.30,315.08 10.63,312.00
             10.63,312.00 27.11,291.00 27.11,291.00
             31.42,285.40 35.30,279.28 41.00,275.00 Z
           M 277.00,8.24
           C 279.59,8.11 281.36,7.94 284.00,8.24
             289.33,8.25 295.21,9.80 300.00,12.13
             304.42,14.28 308.53,17.36 311.82,21.01
             334.95,46.76 315.76,88.32 281.00,86.96
             246.99,85.63 231.34,44.41 254.17,20.04
             260.30,13.50 268.35,10.06 277.00,8.24 Z
           M 471.00,18.00
           C 471.00,18.00 535.00,18.00 535.00,18.00
             535.00,18.00 542.79,19.02 542.79,19.02
             542.79,19.02 548.80,27.00 548.80,27.00
             548.80,27.00 559.19,44.00 559.19,44.00
             559.19,44.00 592.80,100.00 592.80,100.00
             592.80,100.00 612.00,133.00 612.00,133.00
             612.00,133.00 614.00,133.00 614.00,133.00
             614.00,133.00 630.70,102.00 630.70,102.00
             630.70,102.00 662.23,45.00 662.23,45.00
             662.23,45.00 671.70,28.00 671.70,28.00
             671.70,28.00 677.61,18.99 677.61,18.99
             677.61,18.99 685.00,18.00 685.00,18.00
             685.00,18.00 751.00,18.00 751.00,18.00
             751.00,18.00 726.85,60.00 726.85,60.00
             726.85,60.00 676.20,147.00 676.20,147.00
             676.20,147.00 656.99,180.00 656.99,180.00
             651.44,189.45 647.02,193.74 647.00,205.00
             647.00,205.00 647.00,366.00 647.00,366.00
             647.00,366.00 578.00,366.00 578.00,366.00
             578.00,366.00 578.00,212.00 578.00,212.00
             577.98,200.96 573.80,197.27 568.42,188.00
             568.42,188.00 548.20,153.00 548.20,153.00
             548.20,153.00 498.58,67.00 498.58,67.00
             498.58,67.00 471.00,18.00 471.00,18.00 Z
           M 393.00,160.00
           C 403.45,149.55 415.27,139.34 429.00,133.43
             442.28,127.71 452.61,125.84 467.00,126.00
             484.73,126.21 511.76,134.25 524.91,146.30
             530.08,151.04 535.42,159.43 537.94,166.00
             547.20,190.12 545.00,217.55 545.00,243.00
             545.00,243.00 545.00,366.00 545.00,366.00
             545.00,366.00 480.00,366.00 480.00,366.00
             480.00,366.00 480.00,232.00 480.00,232.00
             479.97,212.73 473.94,196.13 454.00,189.60
             448.97,187.95 444.21,187.94 439.00,188.00
             409.26,188.35 393.04,210.93 393.00,239.00
             393.00,239.00 393.00,366.00 393.00,366.00
             393.00,366.00 339.00,366.00 339.00,366.00
             328.32,365.98 332.50,364.65 325.00,361.61
             321.75,360.30 318.44,360.17 317.13,359.72
             312.58,358.18 313.02,352.96 313.00,349.00
             312.97,342.72 311.88,335.64 318.00,332.00
             318.00,332.00 320.00,338.00 320.00,338.00
             320.00,338.00 322.00,331.00 322.00,331.00
             322.00,331.00 324.00,331.00 324.00,331.00
             324.00,331.00 326.00,334.00 326.00,334.00
             328.55,326.09 335.19,328.14 333.87,316.00
             333.62,313.72 330.47,302.84 329.27,301.13
             326.94,297.81 323.50,297.53 323.61,292.98
             323.71,288.54 329.18,271.31 331.26,267.00
             333.97,261.37 338.57,252.37 338.37,246.00
             338.23,241.36 334.66,236.94 334.01,231.00
             334.01,231.00 334.01,222.00 334.01,222.00
             334.01,222.00 333.00,205.00 333.00,205.00
             333.00,205.00 334.96,185.00 334.96,185.00
             334.67,176.51 330.66,168.82 329.39,161.00
             328.67,156.57 330.47,154.49 330.31,152.00
             330.07,148.09 326.27,146.32 324.24,142.91
             322.11,139.35 322.86,135.91 323.00,132.00
             323.00,132.00 393.00,133.00 393.00,133.00
             393.00,133.00 393.00,160.00 393.00,160.00 Z
           M 249.00,133.00
           C 249.00,133.00 306.00,133.00 306.00,133.00
             306.00,133.00 320.00,132.00 320.00,132.00
             316.12,138.73 315.55,143.37 317.63,151.00
             317.63,151.00 319.61,157.00 319.61,157.00
             319.61,157.00 320.84,175.00 320.84,175.00
             320.84,175.00 320.84,189.00 320.84,189.00
             320.84,189.00 319.18,196.00 319.18,196.00
             319.18,196.00 317.68,211.00 317.68,211.00
             316.73,216.76 314.71,219.30 315.09,226.00
             315.09,226.00 315.96,236.00 315.96,236.00
             315.96,236.00 315.00,247.00 315.00,247.00
             314.96,250.59 315.38,254.69 313.86,258.00
             311.14,263.94 305.22,266.62 302.01,272.00
             299.71,275.84 299.95,279.70 300.00,284.00
             300.13,293.68 306.25,301.98 306.22,305.96
             306.19,309.33 303.12,310.44 302.29,313.09
             301.38,315.96 303.60,317.36 303.47,322.00
             303.25,329.69 302.92,341.52 304.52,349.00
             304.52,349.00 310.00,366.00 310.00,366.00
             310.00,366.00 249.00,366.00 249.00,366.00
             249.00,366.00 249.00,133.00 249.00,133.00 Z" />
</svg>
